<mxfile host="app.diagrams.net" agent="Mozilla/5.0 (X11; Linux x86_64; rv:132.0) Gecko/20100101 Firefox/132.0" version="24.8.6">
  <diagram name="Strona-1" id="0cRk-EzxOKH1pTT7EQ4G">
    <mxGraphModel dx="1434" dy="702" grid="1" gridSize="10" guides="1" tooltips="1" connect="1" arrows="1" fold="1" page="1" pageScale="1" pageWidth="827" pageHeight="1169" math="0" shadow="0">
      <root>
        <mxCell id="0" />
        <mxCell id="1" parent="0" />
        <mxCell id="35dKP0a0qPvihtCSCPD3-1" value="Scenariusz 3: Scenariusz zakÅ‚ada uruchomienie SAS CI 360 w chmurze w VPC umieszczonym w organizacji Orlen." style="rounded=0;whiteSpace=wrap;html=1;strokeWidth=1;fillWeight=4;hachureGap=8;hachureAngle=45;align=left;verticalAlign=top;fontSize=14;labelBackgroundColor=none;fillColor=#f9f7ed;strokeColor=#808080;dashed=1;dashPattern=1 1;movable=1;resizable=1;rotatable=1;deletable=1;editable=1;locked=0;connectable=1;fontStyle=1;fontColor=#666666;" parent="1" vertex="1">
          <mxGeometry x="80" y="40" width="960" height="100" as="geometry" />
        </mxCell>
        <mxCell id="35dKP0a0qPvihtCSCPD3-2" value="Web / Email" style="rounded=1;absoluteArcSize=1;arcSize=2;html=1;strokeColor=none;gradientColor=none;shadow=0;dashed=0;fontSize=12;fontColor=#9E9E9E;align=left;verticalAlign=top;spacing=10;spacingTop=-4;fillColor=#E1F5FE;movable=1;resizable=1;rotatable=1;deletable=1;editable=1;locked=0;connectable=1;" parent="1" vertex="1">
          <mxGeometry x="80" y="300" width="170" height="130" as="geometry" />
        </mxCell>
        <mxCell id="35dKP0a0qPvihtCSCPD3-3" value="Backoffice&lt;br&gt;&lt;font style=&quot;font-size: 10px&quot;&gt;Business Systems&lt;/font&gt;&lt;br&gt;" style="rounded=1;absoluteArcSize=1;arcSize=2;html=1;strokeColor=none;gradientColor=none;shadow=0;dashed=0;fontSize=12;fontColor=#9E9E9E;align=left;verticalAlign=top;spacing=10;spacingTop=-4;fillColor=#FFF8E1;movable=1;resizable=1;rotatable=1;deletable=1;editable=1;locked=0;connectable=1;" parent="1" vertex="1">
          <mxGeometry x="80" y="440" width="170" height="130" as="geometry" />
        </mxCell>
        <mxCell id="35dKP0a0qPvihtCSCPD3-13" value="&lt;b&gt;Google &lt;/b&gt;Cloud Platform" style="fillColor=#F6F6F6;strokeColor=none;shadow=0;gradientColor=none;fontSize=14;align=left;spacing=10;fontColor=#717171;9E9E9E;verticalAlign=top;spacingTop=-4;fontStyle=0;spacingLeft=40;html=1;whiteSpace=wrap;movable=1;resizable=1;rotatable=1;deletable=1;editable=1;locked=0;connectable=1;dashed=1;dashPattern=1 1;container=0;" parent="1" vertex="1">
          <mxGeometry x="360" y="360" width="680" height="460" as="geometry" />
        </mxCell>
        <mxCell id="35dKP0a0qPvihtCSCPD3-4" value="Mobile Devices&lt;br&gt;&lt;font style=&quot;font-size: 10px&quot;&gt;Push Notifications&lt;/font&gt;&lt;br&gt;" style="rounded=1;absoluteArcSize=1;arcSize=2;html=1;strokeColor=none;gradientColor=none;shadow=0;dashed=0;fontSize=12;fontColor=#9E9E9E;align=left;verticalAlign=top;spacing=10;spacingTop=-4;fillColor=#F1F8E9;movable=1;resizable=1;rotatable=1;deletable=1;editable=1;locked=0;connectable=1;" parent="1" vertex="1">
          <mxGeometry x="80" y="580" width="170" height="140" as="geometry" />
        </mxCell>
        <mxCell id="35dKP0a0qPvihtCSCPD3-5" value="" style="strokeColor=#dddddd;fillColor=#ffffff;shadow=1;strokeWidth=1;rounded=1;absoluteArcSize=1;arcSize=2;labelPosition=center;verticalLabelPosition=middle;align=center;verticalAlign=bottom;spacingLeft=0;fontColor=#999999;fontSize=12;whiteSpace=wrap;spacingBottom=2;html=1;movable=1;resizable=1;rotatable=1;deletable=1;editable=1;locked=0;connectable=1;" parent="1" vertex="1">
          <mxGeometry x="90" y="490" width="70" height="70" as="geometry" />
        </mxCell>
        <mxCell id="35dKP0a0qPvihtCSCPD3-6" value="" style="dashed=0;connectable=1;html=1;fillColor=#757575;strokeColor=none;shape=mxgraph.gcp2.database;part=1;movable=1;resizable=1;rotatable=1;deletable=1;editable=1;locked=0;" parent="35dKP0a0qPvihtCSCPD3-5" vertex="1">
          <mxGeometry x="0.5" width="50" height="45" relative="1" as="geometry">
            <mxPoint x="-25" y="12.5" as="offset" />
          </mxGeometry>
        </mxCell>
        <mxCell id="35dKP0a0qPvihtCSCPD3-7" value="" style="strokeColor=#dddddd;fillColor=#ffffff;shadow=1;strokeWidth=1;rounded=1;absoluteArcSize=1;arcSize=2;labelPosition=center;verticalLabelPosition=middle;align=center;verticalAlign=bottom;spacingLeft=0;fontColor=#999999;fontSize=12;whiteSpace=wrap;spacingBottom=2;html=1;movable=1;resizable=1;rotatable=1;deletable=1;editable=1;locked=0;connectable=1;" parent="1" vertex="1">
          <mxGeometry x="170" y="490" width="70" height="70" as="geometry" />
        </mxCell>
        <mxCell id="35dKP0a0qPvihtCSCPD3-8" value="" style="dashed=0;connectable=1;html=1;fillColor=#757575;strokeColor=none;shape=mxgraph.gcp2.storage;part=1;movable=1;resizable=1;rotatable=1;deletable=1;editable=1;locked=0;" parent="35dKP0a0qPvihtCSCPD3-7" vertex="1">
          <mxGeometry x="0.5" width="50" height="40" relative="1" as="geometry">
            <mxPoint x="-25" y="15" as="offset" />
          </mxGeometry>
        </mxCell>
        <mxCell id="35dKP0a0qPvihtCSCPD3-9" value="" style="strokeColor=#dddddd;fillColor=#ffffff;shadow=1;strokeWidth=1;rounded=1;absoluteArcSize=1;arcSize=2;labelPosition=center;verticalLabelPosition=middle;align=center;verticalAlign=bottom;spacingLeft=0;fontColor=#999999;fontSize=12;whiteSpace=wrap;spacingBottom=2;html=1;movable=1;resizable=1;rotatable=1;deletable=1;editable=1;locked=0;connectable=1;" parent="1" vertex="1">
          <mxGeometry x="130" y="630" width="70" height="70" as="geometry" />
        </mxCell>
        <mxCell id="35dKP0a0qPvihtCSCPD3-10" value="" style="dashed=0;connectable=1;html=1;fillColor=#757575;strokeColor=none;shape=mxgraph.gcp2.mobile_devices;part=1;movable=1;resizable=1;rotatable=1;deletable=1;editable=1;locked=0;" parent="35dKP0a0qPvihtCSCPD3-9" vertex="1">
          <mxGeometry x="0.5" width="50" height="36.5" relative="1" as="geometry">
            <mxPoint x="-25" y="16.75" as="offset" />
          </mxGeometry>
        </mxCell>
        <mxCell id="35dKP0a0qPvihtCSCPD3-11" value="Stacje&lt;div&gt;POS&lt;/div&gt;" style="rounded=1;absoluteArcSize=1;arcSize=2;html=1;strokeColor=none;shadow=0;dashed=0;fontSize=12;align=left;verticalAlign=top;spacing=10;spacingTop=-4;fillColor=#ffe6cc;fontColor=#B3B3B3;movable=1;resizable=1;rotatable=1;deletable=1;editable=1;locked=0;connectable=1;" parent="1" vertex="1">
          <mxGeometry x="80" y="160" width="170" height="130" as="geometry" />
        </mxCell>
        <mxCell id="35dKP0a0qPvihtCSCPD3-12" value="" style="image;points=[];aspect=fixed;html=1;align=center;shadow=1;dashed=0;image=img/lib/allied_telesis/security/POS.svg;imageBackground=default;imageBorder=#CCCCCC;movable=1;resizable=1;rotatable=1;deletable=1;editable=1;locked=0;connectable=1;" parent="1" vertex="1">
          <mxGeometry x="136.75" y="210" width="56.5" height="60" as="geometry" />
        </mxCell>
        <mxCell id="35dKP0a0qPvihtCSCPD3-27" value="Internet" style="line;strokeWidth=4;direction=south;html=1;perimeter=backbonePerimeter;points=[];outlineConnect=0;strokeColor=#B3B3B3;horizontal=0;fontSize=14;fontColor=#999999;movable=1;resizable=1;rotatable=1;deletable=1;editable=1;locked=0;connectable=1;" parent="1" vertex="1">
          <mxGeometry x="300" y="160" width="10" height="710" as="geometry" />
        </mxCell>
        <mxCell id="35dKP0a0qPvihtCSCPD3-28" value="" style="endArrow=none;html=1;rounded=0;exitX=1;exitY=0.623;exitDx=0;exitDy=0;exitPerimeter=0;strokeWidth=3;strokeColor=#B3B3B3;movable=1;resizable=1;rotatable=1;deletable=1;editable=1;locked=0;connectable=1;" parent="1" source="35dKP0a0qPvihtCSCPD3-11" target="35dKP0a0qPvihtCSCPD3-27" edge="1">
          <mxGeometry width="50" height="50" relative="1" as="geometry">
            <mxPoint x="480" y="440" as="sourcePoint" />
            <mxPoint x="530" y="390" as="targetPoint" />
          </mxGeometry>
        </mxCell>
        <mxCell id="35dKP0a0qPvihtCSCPD3-30" value="" style="endArrow=none;html=1;rounded=0;exitX=1;exitY=0.623;exitDx=0;exitDy=0;exitPerimeter=0;strokeWidth=3;strokeColor=#B3B3B3;movable=1;resizable=1;rotatable=1;deletable=1;editable=1;locked=0;connectable=1;" parent="1" edge="1">
          <mxGeometry width="50" height="50" relative="1" as="geometry">
            <mxPoint x="250" y="640" as="sourcePoint" />
            <mxPoint x="303" y="640" as="targetPoint" />
          </mxGeometry>
        </mxCell>
        <mxCell id="35dKP0a0qPvihtCSCPD3-31" value="" style="endArrow=none;html=1;rounded=0;exitX=1;exitY=0.623;exitDx=0;exitDy=0;exitPerimeter=0;strokeWidth=3;strokeColor=#B3B3B3;movable=1;resizable=1;rotatable=1;deletable=1;editable=1;locked=0;connectable=1;" parent="1" edge="1">
          <mxGeometry width="50" height="50" relative="1" as="geometry">
            <mxPoint x="250" y="504.78999999999996" as="sourcePoint" />
            <mxPoint x="303" y="504.78999999999996" as="targetPoint" />
          </mxGeometry>
        </mxCell>
        <mxCell id="35dKP0a0qPvihtCSCPD3-32" value="" style="endArrow=none;html=1;rounded=0;exitX=1;exitY=0.623;exitDx=0;exitDy=0;exitPerimeter=0;strokeWidth=3;strokeColor=#B3B3B3;movable=1;resizable=1;rotatable=1;deletable=1;editable=1;locked=0;connectable=1;" parent="1" edge="1">
          <mxGeometry width="50" height="50" relative="1" as="geometry">
            <mxPoint x="250" y="360" as="sourcePoint" />
            <mxPoint x="303" y="360" as="targetPoint" />
          </mxGeometry>
        </mxCell>
        <mxCell id="35dKP0a0qPvihtCSCPD3-33" value="" style="endArrow=none;html=1;rounded=0;strokeWidth=3;strokeColor=#B3B3B3;movable=1;resizable=1;rotatable=1;deletable=1;editable=1;locked=0;connectable=1;" parent="1" edge="1">
          <mxGeometry width="50" height="50" relative="1" as="geometry">
            <mxPoint x="305.16666666666674" y="579.2900000000002" as="sourcePoint" />
            <mxPoint x="360" y="579.2900000000001" as="targetPoint" />
          </mxGeometry>
        </mxCell>
        <mxCell id="35dKP0a0qPvihtCSCPD3-34" value="" style="sketch=0;aspect=fixed;pointerEvents=1;shadow=0;dashed=0;html=1;strokeColor=none;labelPosition=center;verticalLabelPosition=bottom;verticalAlign=top;align=center;shape=mxgraph.mscae.enterprise.website_generic;fillColor=#808080;movable=1;resizable=1;rotatable=1;deletable=1;editable=1;locked=0;connectable=1;" parent="1" vertex="1">
          <mxGeometry x="140" y="360" width="56.82" height="50" as="geometry" />
        </mxCell>
        <mxCell id="35dKP0a0qPvihtCSCPD3-36" value="" style="endArrow=none;html=1;rounded=0;strokeWidth=3;strokeColor=#B3B3B3;movable=1;resizable=1;rotatable=1;deletable=1;editable=1;locked=0;connectable=1;" parent="1" edge="1">
          <mxGeometry width="50" height="50" relative="1" as="geometry">
            <mxPoint x="305.16666666666674" y="249.50000000000017" as="sourcePoint" />
            <mxPoint x="360" y="249.50000000000006" as="targetPoint" />
          </mxGeometry>
        </mxCell>
        <mxCell id="N3Vv8xPvsJctR40ruS8Q-17" value="ZaÅ‚oÅ¼enia:&lt;br&gt;- Wykorzystkujemy tylko niezbÄ™dne komponenty SAS w niezbÄ™dnym wymiarze dla obsÅ‚ugi procesÃ³w Customer Inteligence&lt;br&gt;- Modele, scoring, analityka, eksploracja danych, ETL/ELT sa po stronie GCP pod kontrolÄ… Orlen S.A.&lt;br&gt;- Warstwa danych SAS Viya, sÅ‚uzy tylko poprawnemu dziaÅ‚aniu CI360&lt;br&gt;- System podpowiedzi sprzedazowych dziaÅ‚a przez odpytanie API SAS CI360, ten moÅ¼e wykonaÄ‡ bezpoÅ›rednio analize koszykowÄ…, jednak jeÅ¼eli chodzi o analogiÄ™ do bieÅ¼Ä…cego modelu real-time, zapytanie przekierowane jest do warstwy integracji repozytorium danych i to platforma analityczna przygotowuje jako odpowiedÅº rekomendacje dla podpowiedzi sprzedarzowych.&lt;br&gt;- CI360 i Platforma Analityczna moga wymieniac siÄ™ danymi zarÃ³wno w trybie batch (np planowane procesy ETL/ELT) jak i real-time. " style="rounded=0;whiteSpace=wrap;html=1;strokeWidth=1;fillWeight=4;hachureGap=8;hachureAngle=45;align=left;verticalAlign=top;fontSize=14;labelBackgroundColor=none;fillColor=#f9f7ed;strokeColor=#808080;dashed=1;dashPattern=1 1;movable=1;resizable=1;rotatable=1;deletable=1;editable=1;locked=0;connectable=1;fontStyle=1;fontColor=#666666;" parent="1" vertex="1">
          <mxGeometry x="1080" y="200" width="480" height="400" as="geometry" />
        </mxCell>
        <mxCell id="35dKP0a0qPvihtCSCPD3-14" value="" style="shape=mxgraph.gcp2.google_cloud_platform;fillColor=#F6F6F6;strokeColor=none;shadow=0;gradientColor=none;movable=1;resizable=1;rotatable=1;deletable=1;editable=1;locked=0;connectable=1;" parent="1" vertex="1">
          <mxGeometry x="380" y="370" width="23" height="20" as="geometry">
            <mxPoint x="20" y="10" as="offset" />
          </mxGeometry>
        </mxCell>
        <mxCell id="35dKP0a0qPvihtCSCPD3-15" value="VPC 1&lt;br&gt;&lt;div&gt;Orlen Data Repository and Analysis Zone&lt;/div&gt;" style="sketch=0;outlineConnect=0;gradientColor=none;html=1;whiteSpace=wrap;fontSize=12;fontStyle=0;shape=mxgraph.aws4.group;grIcon=mxgraph.aws4.group_vpc;strokeColor=#879196;fillColor=none;verticalAlign=top;align=left;spacingLeft=30;fontColor=#879196;dashed=1;movable=1;resizable=1;rotatable=1;deletable=1;editable=1;locked=0;connectable=1;" parent="1" vertex="1">
          <mxGeometry x="430" y="490.0028571428571" width="540" height="291.7857142857143" as="geometry" />
        </mxCell>
        <mxCell id="35dKP0a0qPvihtCSCPD3-16" value="" style="strokeColor=#dddddd;shadow=1;strokeWidth=1;rounded=1;absoluteArcSize=1;arcSize=2;movable=1;resizable=1;rotatable=1;deletable=1;editable=1;locked=0;connectable=1;" parent="1" vertex="1">
          <mxGeometry x="470" y="577.86" width="120" height="60" as="geometry" />
        </mxCell>
        <mxCell id="35dKP0a0qPvihtCSCPD3-17" value="Cloud&#xa;Storage" style="editableCssRules=.*;html=1;fontColor=#999999;shape=image;verticalLabelPosition=middle;verticalAlign=middle;labelPosition=right;align=left;spacingLeft=20;part=1;points=[];imageAspect=0;image=data:image/svg+xml,PHN2ZyB4bWxucz0iaHR0cDovL3d3dy53My5vcmcvMjAwMC9zdmciIHhtbG5zOnY9Imh0dHBzOi8vdmVjdGEuaW8vbmFubyIgd2lkdGg9IjIwIiBoZWlnaHQ9IjE2IiB2aWV3Qm94PSIwIDAgMjAgMTYiPiYjeGE7CTxzdHlsZSB0eXBlPSJ0ZXh0L2NzcyI+JiN4YTsJLnN0MHtmaWxsOiM0Mjg1ZjQ7fSYjeGE7CS5zdDF7ZmlsbDojNjY5ZGY2O30mI3hhOwkuc3Qye2ZpbGw6I2FlY2JmYTt9JiN4YTsJLnN0M3tmaWxsOiNmZmY7fSYjeGE7CTwvc3R5bGU+JiN4YTsJPHBhdGggY2xhc3M9InN0MiIgZD0iTTAgMGgyMHY3SDB6Ii8+JiN4YTsJPHBhdGggY2xhc3M9InN0MSIgZD0iTTE4IDBoMnY3aC0yeiIvPiYjeGE7CTxwYXRoIGNsYXNzPSJzdDAiIGQ9Ik0xOCA3bDItN2gtMnoiLz4mI3hhOwk8cGF0aCBjbGFzcz0ic3QxIiBkPSJNMCAwaDJ2N0gweiIvPiYjeGE7CTxnIGNsYXNzPSJzdDMiPiYjeGE7CQk8cGF0aCBkPSJNNCAzaDZ2MUg0eiIvPiYjeGE7CQk8cmVjdCB4PSIxMyIgeT0iMiIgd2lkdGg9IjMiIGhlaWdodD0iMyIgcng9IjEuNSIvPiYjeGE7CTwvZz4mI3hhOwk8cGF0aCBjbGFzcz0ic3QyIiBkPSJNMCA5aDIwdjdIMHoiLz4mI3hhOwk8cGF0aCBjbGFzcz0ic3QxIiBkPSJNMTggOWgydjdoLTJ6Ii8+JiN4YTsJPHBhdGggY2xhc3M9InN0MCIgZD0iTTE4IDE2bDItN2gtMnoiLz4mI3hhOwk8cGF0aCBjbGFzcz0ic3QxIiBkPSJNMCA5aDJ2N0gweiIvPiYjeGE7CTxnIGNsYXNzPSJzdDMiPiYjeGE7CQk8cGF0aCBkPSJNNCAxMmg2djFINHoiLz4mI3hhOwkJPHJlY3QgeD0iMTMiIHk9IjExIiB3aWR0aD0iMyIgaGVpZ2h0PSIzIiByeD0iMS41Ii8+JiN4YTsJPC9nPiYjeGE7PC9zdmc+;movable=1;resizable=1;rotatable=1;deletable=1;editable=1;locked=0;connectable=1;" parent="35dKP0a0qPvihtCSCPD3-16" vertex="1">
          <mxGeometry width="30" height="24" relative="1" as="geometry">
            <mxPoint x="15" y="18" as="offset" />
          </mxGeometry>
        </mxCell>
        <mxCell id="35dKP0a0qPvihtCSCPD3-18" value="" style="strokeColor=#dddddd;shadow=1;strokeWidth=1;rounded=1;absoluteArcSize=1;arcSize=2;movable=1;resizable=1;rotatable=1;deletable=1;editable=1;locked=0;connectable=1;" parent="1" vertex="1">
          <mxGeometry x="620" y="577.86" width="140" height="60" as="geometry" />
        </mxCell>
        <mxCell id="35dKP0a0qPvihtCSCPD3-19" value="BigQuery" style="editableCssRules=.*;html=1;fontColor=#999999;shape=image;verticalLabelPosition=middle;verticalAlign=middle;labelPosition=right;align=left;spacingLeft=20;part=1;points=[];imageAspect=0;image=data:image/svg+xml,PHN2ZyB4bWxucz0iaHR0cDovL3d3dy53My5vcmcvMjAwMC9zdmciIHhtbG5zOnY9Imh0dHBzOi8vdmVjdGEuaW8vbmFubyIgd2lkdGg9IjIwLjAwMTA0NTIyNzA1MDc4IiBoZWlnaHQ9IjIwLjAwMTA0NTIyNzA1MDc4IiBmaWxsLXJ1bGU9ImV2ZW5vZGQiIHZpZXdCb3g9IjAgMCAyMC4wMDEwNDUyMjcwNTA3OCAyMC4wMDEwNDUyMjcwNTA3OCI+JiN4YTsJPHN0eWxlIHR5cGU9InRleHQvY3NzIj4mI3hhOwkuc3Qwe2ZpbGw6I2FlY2JmYTt9JiN4YTsJLnN0MXtmaWxsOiM2NjlkZjY7fSYjeGE7CS5zdDJ7ZmlsbDojNDI4NWY0O30mI3hhOwk8L3N0eWxlPiYjeGE7CTxwYXRoIGNsYXNzPSJzdDAiIGQ9Ik00LjczIDguODN2Mi42M2E0LjkxIDQuOTEgMCAwIDAgMS43MSAxLjc0VjguODN6Ii8+JiN4YTsJPHBhdGggY2xhc3M9InN0MSIgZD0iTTcuODkgNi40MXY3LjUzQTcuNjIgNy42MiAwIDAgMCA5IDE0YTggOCAwIDAgMCAxIDBWNi40MXoiLz4mI3hhOwk8cGF0aCBjbGFzcz0ic3QwIiBkPSJNMTEuNjQgOS44NnYzLjI5YTUgNSAwIDAgMCAxLjctMS44MlY5Ljg2eiIvPiYjeGE7CTxwYXRoIGNsYXNzPSJzdDIiIGQ9Ik0xNS43NCAxNC4zMmwtMS40MiAxLjQyYS40Mi40MiAwIDAgMCAwIC42bDMuNTQgMy41NGEuNDIuNDIgMCAwIDAgLjU5IDBsMS40My0xLjQzYS40Mi40MiAwIDAgMCAwLS41OWwtMy41NC0zLjU0YS40Mi40MiAwIDAgMC0uNiAwIi8+JiN4YTsJPHBhdGggY2xhc3M9InN0MSIgZD0iTTkgMGE5IDkgMCAxIDAgMCAxOEE5IDkgMCAxIDAgOSAwbTAgMTUuNjlhNi42OCA2LjY4IDAgMCAxIC4wMDctMTMuMzYgNi42OCA2LjY4IDAgMCAxIDQuNzI3IDExLjQwM0E2LjY4IDYuNjggMCAwIDEgOSAxNS42OSIvPiYjeGE7PC9zdmc+;movable=1;resizable=1;rotatable=1;deletable=1;editable=1;locked=0;connectable=1;" parent="35dKP0a0qPvihtCSCPD3-18" vertex="1">
          <mxGeometry width="30" height="30" relative="1" as="geometry">
            <mxPoint x="15" y="15" as="offset" />
          </mxGeometry>
        </mxCell>
        <mxCell id="35dKP0a0qPvihtCSCPD3-20" value="" style="strokeColor=#dddddd;shadow=1;strokeWidth=1;rounded=1;absoluteArcSize=1;arcSize=2;movable=1;resizable=1;rotatable=1;deletable=1;editable=1;locked=0;connectable=1;" parent="1" vertex="1">
          <mxGeometry x="785.0050000000001" y="577.86" width="160" height="60" as="geometry" />
        </mxCell>
        <mxCell id="35dKP0a0qPvihtCSCPD3-21" value="Cloud Machine&#xa;Learning" style="editableCssRules=.*;html=1;fontColor=#999999;shape=image;verticalLabelPosition=middle;verticalAlign=middle;labelPosition=right;align=left;spacingLeft=20;part=1;points=[];imageAspect=0;image=data:image/svg+xml,PHN2ZyB4bWxucz0iaHR0cDovL3d3dy53My5vcmcvMjAwMC9zdmciIHhtbG5zOnY9Imh0dHBzOi8vdmVjdGEuaW8vbmFubyIgd2lkdGg9IjIwIiBoZWlnaHQ9IjE3LjUiIGZpbGwtcnVsZT0iZXZlbm9kZCIgdmlld0JveD0iMCAwIDIwIDE3LjUiPiYjeGE7CTxzdHlsZSB0eXBlPSJ0ZXh0L2NzcyI+JiN4YTsJLnN0MHtmaWxsOiM0Mjg1ZjQ7fSYjeGE7CS5zdDF7ZmlsbDojNjY5ZGY2O30mI3hhOwk8L3N0eWxlPiYjeGE7CTxwYXRoIGNsYXNzPSJzdDAiIGQ9Ik0xOC45MSAxMC42M0wyMCA4Ljc1IDE3LjgyIDVoLTMuMDdsLTEuMDYtMS44NkgxMi41VjEuODhoMS45NGwxLjA2IDEuODdoMS41OUwxNC45IDBoLTQuMjd2NWgxLjczbC43MyAxLjI1aC0yLjQ2djIuNWgyLjI2bDEuMDUtMS44N2gyLjgxbC43MiAxLjI1aC0yLjhMMTMuNjIgMTBoLTIuOTl2NC4zOGgzLjRsLS43MiAxLjI1aC0yLjY4djEuODdoNC4yN2wzLjI4LTUuNjJoLTIuMDlsLS43MyAxLjI1SDEyLjV2LTEuMjVoMi4xNGwuNzQtMS4yNXoiLz4mI3hhOwk8cGF0aCBjbGFzcz0ic3QxIiBkPSJNMS4wOSAxMC42M0wwIDguNzUgMi4xOCA1aDMuMDdsMS4wNi0xLjg2SDcuNVYxLjg4SDUuNTZMNC41IDMuNzVIMi45MUw1LjEgMGg0LjI4djVINy42NGwtLjczIDEuMjVoMi40N3YyLjVINy4xMUw2LjA2IDYuODhIMy4yNWwtLjcyIDEuMjVoMi44TDYuMzggMTBoM3Y0LjM4SDUuOTdsLjcyIDEuMjVoMi42OXYxLjg3SDUuMWwtMy4yOC01LjYyaDIuMDlsLjczIDEuMjVINy41di0xLjI1SDUuMzZsLS43NC0xLjI1eiIvPiYjeGE7PC9zdmc+;movable=1;resizable=1;rotatable=1;deletable=1;editable=1;locked=0;connectable=1;" parent="35dKP0a0qPvihtCSCPD3-20" vertex="1">
          <mxGeometry width="30" height="27" relative="1" as="geometry">
            <mxPoint x="15" y="16" as="offset" />
          </mxGeometry>
        </mxCell>
        <mxCell id="hNwgVkph9_-9w0Fj4r1G-4" style="edgeStyle=orthogonalEdgeStyle;rounded=0;orthogonalLoop=1;jettySize=auto;html=1;startArrow=classic;startFill=1;" edge="1" parent="1" source="N3Vv8xPvsJctR40ruS8Q-1" target="35dKP0a0qPvihtCSCPD3-15">
          <mxGeometry relative="1" as="geometry" />
        </mxCell>
        <mxCell id="N3Vv8xPvsJctR40ruS8Q-1" value="Integration layer&amp;nbsp; " style="verticalLabelPosition=middle;verticalAlign=top;html=1;shape=mxgraph.basic.rect;fillColor2=none;strokeWidth=1;size=20;indent=5;fillColor=#f5f5f5;fontColor=#808080;strokeColor=#808080;dashed=1;labelPosition=center;align=left;" parent="1" vertex="1">
          <mxGeometry x="430" y="400" width="540" height="60" as="geometry" />
        </mxCell>
        <mxCell id="35dKP0a0qPvihtCSCPD3-26" value="" style="shape=image;verticalLabelPosition=bottom;labelBackgroundColor=default;verticalAlign=top;aspect=fixed;imageAspect=0;image=data:image/png,iVBORw0KGgoAAAANSUhEUgAAAbEAAAB0CAMAAAA8XPwwAAAAwFBMVEX///9OTk7zdyaYl5hJSUk+Pj5LS0tDQ0N2dnfn5+dGRka2trY8PDxnZ2f19fWBgYFvcHDw8PDDw8Pb29tWVlbxawA4ODi9vb3i4uLJycmwsLCGhoZVVVXR0dGenp7X19fycxqmpqbycBBhYWGRkJH+8+385dr2qH/718VkZGT6zrjxaAD5xKr1nnD97uX83tD1lFzzgz/0i034upr0k173ron5xazyey32o3b60LrzhUT0jVP4tpT1k13zfzUsLCxmb2eAAAAP00lEQVR4nO1dCZeivBLVlkVREW1xX3Hrze6ZtveZ6e///6vHkgoQkgAKgq+558w5Y7OFXKpSqapUSqUk0a6pid6vQLqoV5tas9XPuhkFIqLd0qoWtHEhZ5eBKkAbZ92UAlEw0lzKOlk3pkAEVD1oZd2YAuGoaR7GmsVIln8MfIy1s25OgVD4ZSzr1hSIAC9jxTiWPR6f3g67/cuvXy8fr4fP7SZ4RmErnhOD4ZQz8jwdfi0M3TAWCIb54+rj7ZE4rZiPnQ211m2zuZrRD37udX2xuArA5PD9des9s/B5nAvtpmahWQke2u4MncIWZk3//eDVj4Vf8TyoOIxpt3PiwM0fHl0ODGPn5aw9KOz69HGrIfj14tNzOF+OoO0odkiB9NDGjHkNhs2LHoUuxNkhs9bnB+pwfS6LawWMeQayByOSfGHd+HvLvv9PwHypibJ8rmnoGhF2O4W/bP5EFzAE/e+ZWptHjCVRkcpl4VyM1Ry12MQyfRNPwJCYPZ+puTnErUlX+YyMlQZVcz52i3Xi4T4+XyYWVz9WMzbPzVipNO13avD/j9gaEaDfnK/FuUIGjHmwNzhiZIND2V0mTc4cmTL2EiRssTB03fzz9/OvX/uXX3++3q8cN2OQsvufSVmWjJGEWd7DP68PN6Sz/nH7efj4WugkbT9TMWbI2M7ws/X1+kl66L1Qt2/7K91Hsv50tsbmB9kx9qB76drfRfI+bQ9fXtIWP9BllRljT5gww3iJo942D7+xD3LxnVr7cousGFOh0/XvQ2xB2e4MJGjGLo3GJQG13W6nErqLz5iqHtUQ4qoXhzH96zjrYXNYGPm1Pqaz5kRuNESlqy3JqNLJAMYieYJr9XWzKylCeaXNhjF4Gyy1rlSeDN2/fOqOfJ3Q3wekG+NdNZt0bUg14sBasDuiLDJibi2no8oS+d5NQbIgwm91Zjn+nLMlSRHLy+DNlmWnFZMuu6VVaGnd+T2Uy0yI17Q7qKOuKAtOU8yWyHKLepoJzWnuCv0caM4biJ54sSUgi6sTJ1Q7i/ZFPL1YUSSngwOMKXzGqg6jkkIyhg6I6O/LnuLvTUkW6+TN2qKEmjElDwVO6aEb8xhr0KiY9WTJf5rQ0MjXdjC22yyh76fSQ9fJLmM7Uzz004eg7ZfJvB7Lw1gBYsimV0IYayEZDDCGDjg3HHRp/SoGkmARzRzd1kc3wuNVTBkbSrTzhUbg67EAn6v9Q8MXuow96qaAJTKXOtxfLf7EuSA9xgbm/zsi8VVDRylElw5FdKTBamgV3QlLYTzGKg3WqWt2rwjW/5uujnAZ2y/0PaulMbG9WsSaRyfP2FjAndbvsbpUEgkLRAoqHh/aiFKpDH+JxZgrJ+b4JYqyIrjnUsR65ry8bL2O5zG4cY96kpH/P3qcYFnyjK0xY8MedJJovrZgjvreTh34rlqix0ka/XF11HEKzocZooHN/QpckOMYJkyRteVwPp+OxhIe1MRg6iFqjSnwHa9sYsZ294ma5B/3MYQsecbQheK07XSTJHaXVgqtWuu0ZFfDuMJiow3iGGiIAw2UIiZ6irLQ4IbdqobR9H8OICeSOHPfpj+BxvQC5s7IOdQrlQT0XEE20UOMbeL0cBR8vEQ/N3nG0PcpT51Ollee/lBnDSwTStV3GYxT8oj2tDb61KXgMpDw+VgdaVTl1v+SYxg8y+QVmLGlw7Usj+vD6bCOVPnfxP23++hek9QYk5rWCVKDIGAwwaqxMfQeANtDWpUoAKVIGeZCfR41xLZcJY9U0DNlcoqIHtdQ7XcRFMKgTMFLEf2WyTM2ghHJ+qcEXRxNoIzQi0AkdfaLlWLQTxHKGJxAGSFbqK0ycVs0lVBsC0Su5ioxPgXGvMbVgHJlFxSjX2CQfVZWKAntKhrlaKovjDEkvJJA6XcVVDEhZDD5swnL2dKT5Bmru4z59R4AtBShAGvMUcW9J80lEsbYSuK0BX1eEuEd67vvQBPNTJEmYwrj68RS6J+U4TlysG+RUpQoZIYxBiLG6HiZ1pJSx2WMVJiZI03GmC8LelHw+RvA9gj2PUyfFYoTOYwxcMEwYgZovq/452QuYzLVi5UlUmSMNiD5TyFkBsa3BuuWDdpcjc8YTAqpFmgJe06I45gxacJ6h8yQPGN4DGjQzA4bKpiLfrsQbI/Adw1KkarZ+IyB1UeTTgsw0ev5XgMzxrwuO6QnY+Ro7gXSRcR0uQZerVv/2aAUZeoKbz5jXr80FejefpsGM8a+LjOkxxgvKNyhnwOzLkL74TtSx0U+Y6DdmE1BpqRfrqF9OVSKKTLGG7Pb0CPE8EG3MBCRAi0uEsIYmklIAXcHBrJQ/aYH44vKBdJjjB1ONgEDWc//Z3CX+BQqKEWGucdlDBkWwnhwTceA+jkAYzkcxtJkjDcEYP3nvxpsDx85jFkugMsYTP0EkQVIV/FJITDGitZlifQYo5riAJz34z8J3CGK94tHlChUp34IY2tvSI4Hvx3aiaInMkJGjGFhIgQRZM9jKUDkrMdoCJex1omMsZKtMkTWjBFdgrvK9VSh+7HcTHzGqlEZ819eMBbAkiFj4PcQ3GEFrZqleBsdcBkDmQ2FQrU8CsYwWFoRP7YBj8U+RdatIjEmSQIfMtW6LxgLv/sAAsZgZyBrj+2k5GtFZLUsrWR7LnyXFYwxr+4FjiAC8Nwa/aZm+XpP4FoecedVF8nYmnUA4TTGVhD8DRwBRzLyI6M4J9P3Hs26Z0soHRfJWAVmTIyJ8GkzaPBSUQxAf2IiUor0DCsbXMYgTShmIPkyGWPY3wCIGB/lpRpA8JLiKkQPRi4OZDrI7Kp2XMawE57dFt5lF8UYDlYxrGotjDGeJ5iTzIZtD1tGkaUosD25fMbg02DpdgYukjGcNs0YtCdhjPHGDpjY8oLK9oPRqMacjJXCoi2sICkfF8nYFBQXPeCAE6LYEU22saCCj54afup7Avlg63HegM8YLHOLV1L+IhkbBBaT+IDzodh5HmzTY8QVQ9XjJRZDxRWnFNAVZ/2ovr9Ixko9bsdPsPuHyRg7HFiGWAu9Q9DEwrQPkaCzM0ZKLmN0KYLYKW8kDOIyGWvCQEX7wLGIBRWbm/3WY7zvMkRvIvE2pcZpHV+lIaOVFT6DWQg9w5SBy2QMjMWg3vPm7/IYY2RJgDHIjheC8xdJMt9sgCwfhnNmDk1lOW9ouEzGwPQg3NoWVFcn8hgjFxyhi0EnstNecMoaUo/ctFwIA7D4x87gSfTs3stkDI825QaRddbuulEnLmNlSvFeFV/M0VNICp0zQ9JjOiE6FnLqzNeJnMoWwlgKtaR4Fcj84DCG1WK55/t8O8561IlzjMtYWVkR953jZbBUAUTwBftZCdgIeJ4hMjxZI1AWUoM+t6wFeAlh7JXboGNwE3392IzNWNvterGFP89h0+4AeQQlWMjL3Cxuu5fEimf8qI3xGk3q6iDAtWf1MS9T1QZe3cQgpKThT0+e1Mmn1upaL6D2Qxjb/g5pUlxsY9TN4TBWmnnW5IiryqjfX7YkJ/lIuMUjPtPnsUSTKblaH7RLavt6pImeJf7cIeLWjR1znMAOKi4h5fWoPlquu8SQ5mpxSVaqo7m9b7baHkxH464oS8FvImwc+0qWsqf7h+gnc7Si5+u13lVRZFxUwaqUg2ZNAVHB0Zb2DNwmsmit+7aLnANCjG2PaqUsy/Sj5gqkJNiNJEluTzxaVlJEuzlmg0TFWZge8DOHMXZz/x594AnFnW7EOJvLmGvE+yHJNXeFOic+1mKV3OBUM3KgYrmJkJa7Jh8T8IWqK07xD4q3O9RW/L0wElsM/aobcYqDwBgvU53bc2rNG6VrnYwYC0xzvBHNFp1yZRJqtY2xRRnBwOsSGVNKsELHukF7E9b5oYzd6Fd6MvbH5tm4iiNi7ioTejjiWlDI15MajskO6/FZTn/7wKgXTD8TgiN9ENhmj+LCbU/8rQzOIM2Pb8WouGQVpyIfEj4fe14ks/vKm27eKMYo5mGM4RFQxw1fnwtiFym0jkgtT0NkDdS81obFgNKoRpkWXUNgK5pzqeUTIboTsbPyjaTQHlEeB1Q0erfgy2FsrTp796eK2fbZuk08M4YZSsYYjBVrhDZhDetV3IPzVdPCinxdMs9j3vJcL3Zn0aaxEO6Puhxo2rRLJzoPkRi+/sFsZdekkuBtROF2RhtRh867NVdsg9auw20sYokHgc3OLokZsx43pMgInHPU6bKlNZtaazaM4JsLZuZY11c1rdqa9SOHgpHDJdS0d1Ebje2deit13jfRntYrLWdL3/WoMzhhWToq8/v+duT1m51T/T5uoWAw15Nb2hYplyoMuKBG3lb6u4BS3MYifmFnUx/uoRz3e8wrYSFrclUrEmGs7MkcyCv+Qtl6Q9/HM/U3b1+4fHq8AqbujCtuQh8HSTAGEbTcFdPw4R/e02Ohv++ijkabuxfPJi56XKUKZSVjjBdhSIAxKAAQqPCVM3x7NwHRFy8PofLy9PfLt+eOEdvapC6KPA0JMAZeRTH81Eyx8W+cY22K9O/vJ522zdPb7lsn9rM14peuBc9hMP/9aJzOWCVCxmM+8GhcEbD3snr/t389vN19ft7cfN7dPfzd7Z8XemBjJJOwf7GfiBOmEiyXdTJjUMAyNMySA2wDlCHeFoYL1rZxRqwa3A4gbSXJr/lUxqBERLmRw0XIATzyNvHjw4hRahbg1ixP0CY7kbE+Tl3NYS0NCja/6WIWimP2N5jjaHEE12xknMbYEhdcZ5e5yRn2R+19GtusN7HEkcCY6wj4OIUxtYrDM73Et+RJDQ/xKTPe4/v9O+7+HHIwnHQCTmCs724cIOZ8KubDY1zNGFcjtgedtVugn7ek4Rgczdhw5cY/z7bnfUI4xNl33fiOWX29/59vdweJs5ruGBzJ2HLiiTgqeSvOG4rNhx6RsyMiNHNfKF+InncZDUcy1vR8RPLFEVbyeuO5fMXK6UBoe7ciEbWkna1HMuYpui5emEoEPL5S/BpeLPT34yKgblKEIiZf3OxIxtya6r1EDaH0cN3p9+fE9373j7q5ukPXVWT/PgnkaJVkSs7R6aiLThWaXkzLA7k45fIluDpMW3u9Xlcq6zWZZLy5+/jW/bTZvsbnUzZ7qSqSoIhiNZ3igcPx2sY4pkFjZ04qjeQCdWlCnZl0OVgH7YDN52H/fKUjvL/sHp5OW1wxW1XHo2negoVTUZB9Sfp5xqziYs1UJpvHzf/zlupqWkKfAvprD2OVCxl3fzJUH2GV9eU41H4qhn7GKpfkUfuZGPkJqyQZ+iiQBmYkY3mz4goQWBaMXRjqhVa8MMwJyyP3OV8FCOs+yRB+gVQw9VK2Ti6fukBqqHsoK1weFwHsp1oX0+cLQW1kRyiWhYfqcqDWrk9Z41mgQAEa/gckNRxIUF7WGQAAAABJRU5ErkJggg==;dashed=1;dashPattern=1 2;" parent="1" vertex="1">
          <mxGeometry x="790.3499999999999" y="680" width="149.31" height="40" as="geometry" />
        </mxCell>
        <mxCell id="N3Vv8xPvsJctR40ruS8Q-7" value="Pub/Sub" style="editableCssRules=.*;html=1;fontColor=#999999;shape=image;verticalLabelPosition=middle;verticalAlign=middle;labelPosition=right;align=left;spacingLeft=20;part=1;points=[];imageAspect=0;image=data:image/svg+xml,PHN2ZyB4bWxucz0iaHR0cDovL3d3dy53My5vcmcvMjAwMC9zdmciIHhtbG5zOnY9Imh0dHBzOi8vdmVjdGEuaW8vbmFubyIgd2lkdGg9IjE4LjMxOTk5OTY5NDgyNDIyIiBoZWlnaHQ9IjIwLjAwMDAwMTkwNzM0ODYzMyIgdmlld0JveD0iMCAwIDE4LjMxOTk5OTY5NDgyNDIyIDIwLjAwMDAwMTkwNzM0ODYzMyI+JiN4YTsJPHN0eWxlIHR5cGU9InRleHQvY3NzIj4mI3hhOwkuc3Qwe2ZpbGw6IzY2OWRmNjt9JiN4YTsJLnN0MXtmaWxsOiM0Mjg1ZjQ7fSYjeGE7CS5zdDJ7ZmlsbDojYWVjYmZhO30mI3hhOwk8L3N0eWxlPiYjeGE7CTxkZWZzPiYjeGE7CQk8ZmlsdGVyIGlkPSJBIiB4PSI0LjY0IiB5PSI0LjE5IiB3aWR0aD0iMTQuNzMiIGhlaWdodD0iMTIuNzYiIGZpbHRlclVuaXRzPSJ1c2VyU3BhY2VPblVzZSIgY29sb3ItaW50ZXJwb2xhdGlvbi1maWx0ZXJzPSJzUkdCIj4mI3hhOwkJCTxmZUZsb29kIGZsb29kLWNvbG9yPSIjZmZmIi8+JiN4YTsJCQk8ZmVCbGVuZCBpbj0iU291cmNlR3JhcGhpYyIvPiYjeGE7CQk8L2ZpbHRlcj4mI3hhOwkJPG1hc2sgaWQ9IkIiIHg9IjQuNjQiIHk9IjQuMTkiIHdpZHRoPSIxNC43MyIgaGVpZ2h0PSIxMi43NiIgbWFza1VuaXRzPSJ1c2VyU3BhY2VPblVzZSI+JiN4YTsJCQk8Y2lyY2xlIGN4PSIxMiIgY3k9IjEyLjIzIiByPSIzLjU4IiBmaWx0ZXI9InVybCgjQSkiLz4mI3hhOwkJPC9tYXNrPiYjeGE7CTwvZGVmcz4mI3hhOwk8ZyBjbGFzcz0ic3QwIj4mI3hhOwkJPGNpcmNsZSBjeD0iMTYuMTMiIGN5PSI2LjIxIiByPSIxLjcyIi8+JiN4YTsJCTxjaXJjbGUgY3g9IjIuMTkiIGN5PSI2LjIxIiByPSIxLjcyIi8+JiN4YTsJCTxjaXJjbGUgY3g9IjkuMTYiIGN5PSIxOC4yOCIgcj0iMS43MiIvPiYjeGE7CTwvZz4mI3hhOwk8ZyBtYXNrPSJ1cmwoI0IpIiB0cmFuc2Zvcm09InRyYW5zbGF0ZSgtMi44NCAtMikiPiYjeGE7CQk8cGF0aCB0cmFuc2Zvcm09Im1hdHJpeCguNSAtLjg3IC44NyAuNSAtNC41OSAyMC41MykiIGQ9Ik0xNC42OSAxMC4yMmgxLjU5djguMDRoLTEuNTl6IiBjbGFzcz0ic3QxIi8+JiN4YTsJCTxwYXRoIHRyYW5zZm9ybT0icm90YXRlKDMzMCA4LjUyMyAxNC4yNDQpIiBkPSJNNC40OSAxMy40NWg4LjA0djEuNTlINC40OXoiIGNsYXNzPSJzdDEiLz4mI3hhOwkJPHBhdGggZD0iTTExLjIgNC4xOWgxLjU5djguMDRIMTEuMnoiIGNsYXNzPSJzdDEiLz4mI3hhOwk8L2c+JiN4YTsJPGcgY2xhc3M9InN0MiI+JiN4YTsJCTxjaXJjbGUgY3g9IjkuMTYiIGN5PSIxMC4yMyIgcj0iMi43OCIvPiYjeGE7CQk8Y2lyY2xlIGN4PSIyLjE5IiBjeT0iMTQuMjUiIHI9IjIuMTkiLz4mI3hhOwkJPGNpcmNsZSBjeD0iMTYuMTMiIGN5PSIxNC4yNSIgcj0iMi4xOSIvPiYjeGE7CQk8Y2lyY2xlIGN4PSI5LjE2IiBjeT0iMi4xOSIgcj0iMi4xOSIvPiYjeGE7CTwvZz4mI3hhOzwvc3ZnPg==;" parent="1" vertex="1">
          <mxGeometry x="530" y="415.0000000000001" width="27" height="30" as="geometry" />
        </mxCell>
        <mxCell id="N3Vv8xPvsJctR40ruS8Q-8" value="Dataflow" style="editableCssRules=.*;html=1;fontColor=#999999;shape=image;verticalLabelPosition=middle;verticalAlign=middle;labelPosition=right;align=left;spacingLeft=20;part=1;points=[];imageAspect=0;image=data:image/svg+xml,PHN2ZyB4bWxucz0iaHR0cDovL3d3dy53My5vcmcvMjAwMC9zdmciIHhtbG5zOnY9Imh0dHBzOi8vdmVjdGEuaW8vbmFubyIgd2lkdGg9IjE0LjUxOTk5OTUwNDA4OTM1NSIgaGVpZ2h0PSIyMCIgdmlld0JveD0iMCAwIDE0LjUxOTk5OTUwNDA4OTM1NSAyMCI+JiN4YTsJPHN0eWxlIHR5cGU9InRleHQvY3NzIj4mI3hhOwkuc3Qwe2ZpbGwtcnVsZTpldmVub2RkfSYjeGE7CS5zdDF7ZmlsbDojNjY5ZGY2O30mI3hhOwkuc3Qye2ZpbGw6I2FlY2JmYTt9JiN4YTsJLnN0M3tmaWxsOiM0Mjg1ZjQ7fSYjeGE7CTwvc3R5bGU+JiN4YTsJPGcgY2xhc3M9InN0MCI+JiN4YTsJCTxwYXRoIGNsYXNzPSJzdDEiIGQ9Ik03LjM3IDIuMDNsLTEuNzIuOTYgMS41MiAxLjUtLjAyIDEuNzMgMS4wMi4wMS4wMi0xLjczIDQuMjQgMi41Ni0uMDEgMS4wNyAxLjc3LjAzVjYuMTFMOS4wNSAzLjA0bC0uMjctLjk0eiIvPiYjeGE7CQk8cGF0aCBjbGFzcz0ic3QyIiBkPSJNNy4zNiAyLjAzbC0xLjQyLjM1LS4yOS42MUwuMzkgNS45Mi4zNiA3Ljk3IDIuMTQgOGwuMDItMS4wNyA0LjMxLTIuNDUtLjAyIDEuNzMuODYuMDEuMDYtNC4xOXoiLz4mI3hhOwkJPGcgY2xhc3M9InN0MSI+JiN4YTsJCQk8cGF0aCBkPSJNNy4zNiAyLjAzTDMuOTUgMCAyLjIxLjk1bDMuNDQgMi4wNCAxLjcyLS45NnptLjcxIDExLjc2bC0xLjcyLS4wMi0uMDIgMS43Mi44MiAyLjQ4IDEuNDItLjEyLjI5LS44NSA1LjI3LTIuOTMuMDMtMi4wOS0xLjc5LS4wMi0uMDIgMS4xLTQuMyAyLjQ1eiIvPiYjeGE7CQkJPHBhdGggZD0iTTcuMTUgMTcuOTdsLTMuNDYgMS45NGgtLjA1bC0xLjY2LS45OSAzLjQ5LTEuOTYgMS42OCAxLjAxeiIvPiYjeGE7CQk8L2c+JiN4YTsJCTxwYXRoIGNsYXNzPSJzdDMiIGQ9Ik0xMC44OC4wOWgtLjA1TDcuMzcgMi4wM2wxLjY4IDEuMDEgMy40OS0xLjk2ek0xMC42MiAyMGgtLjA1bC0zLjQyLTIuMDNoMCAwIDBsMS43Mi0uOTYgMy40NCAyLjA0eiIvPiYjeGE7CQk8cGF0aCBjbGFzcz0ic3QyIiBkPSJNLjMzIDEzLjg5di0yaDEuNzZsLS4wMSAxLjA0IDQuMjUgMi41Ni4wMi0xLjcyLjg2LjAxLS4wNiA0LjE4LTEuNjgtMXoiLz4mI3hhOwk8L2c+JiN4YTsJPGNpcmNsZSBjbGFzcz0ic3QyIiBjeD0iMTMuMzgiIGN5PSIxMC4wNCIgcj0iMS4xNCIvPiYjeGE7CTxjaXJjbGUgY2xhc3M9InN0MiIgY3g9IjEuMTQiIGN5PSI5Ljg4IiByPSIxLjE0Ii8+JiN4YTsJPGNpcmNsZSBjbGFzcz0ic3QyIiBjeD0iNy4zMiIgY3k9IjcuOTkiIHI9IjEuMTQiLz4mI3hhOwk8Y2lyY2xlIGNsYXNzPSJzdDIiIGN4PSI3LjIzIiBjeT0iMTIiIHI9IjEuMTQiLz4mI3hhOzwvc3ZnPg==;" parent="1" vertex="1">
          <mxGeometry x="650.65" y="415" width="22" height="30" as="geometry" />
        </mxCell>
        <mxCell id="N3Vv8xPvsJctR40ruS8Q-12" value="Apigee" style="editableCssRules=.*;html=1;shape=image;verticalLabelPosition=middle;labelBackgroundColor=none;verticalAlign=middle;aspect=fixed;imageAspect=0;image=data:image/svg+xml,PHN2ZyB4bWxucz0iaHR0cDovL3d3dy53My5vcmcvMjAwMC9zdmciIHhtbG5zOnY9Imh0dHBzOi8vdmVjdGEuaW8vbmFubyIgd2lkdGg9IjIwLjE4MDIzMTA5NDM2MDM1IiBoZWlnaHQ9IjIwLjE4MDIwODIwNjE3Njc1OCIgdmlld0JveD0iLTAuMDAwMTE1MTY1MTIzMTMzOTIwMTMgLTAuMDAwMTAzMzQ0NDkzMjU0NTUzNTMgMjAuMTgwMjMxMDk0MzYwMzUgMjAuMTgwMjA4MjA2MTc2NzU4Ij4mI3hhOwk8c3R5bGUgdHlwZT0idGV4dC9jc3MiPiYjeGE7CS5zdDB7ZmlsbDojNjY5ZGY2O2ZpbGwtcnVsZTpldmVub2RkfSYjeGE7CS5zdDF7ZmlsbC1ydWxlOmV2ZW5vZGQ7ZmlsbDojNDI4NWY0fSYjeGE7CTwvc3R5bGU+JiN4YTsJPHBhdGggY2xhc3M9InN0MCIgZD0iTTMuMjkgMTAuMDlsMS4zMi0xLjMyLTEuNzktMS43OWEyLjk0IDIuOTQgMCAwIDEgMi4wOC01IDIuOTIgMi45MiAwIDAgMSAyLjA3Ljg2bDEuOCAxLjc5IDEuMzItMS4zNEw4LjMgMS41YTQuODEgNC44MSAwIDEgMC02LjggNi44em0xMy42IDBsLTEuMzIgMS4zMiAxLjc5IDEuOGEyLjk0IDIuOTQgMCAwIDEtNC4xNiA0LjE1bC0xLjc5LTEuNzktMS4zMiAxLjMyIDEuNzkgMS43OWE0LjgxIDQuODEgMCAxIDAgNi44LTYuOHoiLz4mI3hhOwk8cGF0aCBjbGFzcz0ic3QxIiBkPSJNNi45OCAxNy4zNmEyLjk0IDIuOTQgMCAxIDEtNC4xNi00LjE2bDEuNzktMS43OSA0LjE2IDQuMTZ6bTYuMjMtMTQuNTRhMi45MyAyLjkzIDAgMCAxIDUgMi4wOCAzIDMgMCAwIDEtLjg2IDIuMDhsLTEuNzkgMS43OS00LjE1LTQuMTZ6bS0zLjEyIDEwLjQ2YTMuMiAzLjIgMCAwIDEtMy4xOS0zLjE5aDBhMy4yMSAzLjIxIDAgMCAxIDMuMTktMy4xOWgwYTMuMjEgMy4yMSAwIDAgMSAzLjE5IDMuMTloMGEzLjIgMy4yIDAgMCAxLTMuMTkgMy4xOXptNi44LTMuMTlsMS43OS0xLjc5QTQuODEgNC44MSAwIDAgMCAxNi41NzQuMTUzIDQuODEgNC44MSAwIDAgMCAxMS44OCAxLjVsLTEuNzkgMS43OS02LjggNi44LTEuNzkgMS43OWE0LjgxIDQuODEgMCAwIDAgMi4xMDYgOC4xNDdBNC44MSA0LjgxIDAgMCAwIDguMyAxOC42OGwxLjc5LTEuNzl6Ii8+JiN4YTs8L3N2Zz4=;labelPosition=right;align=left;fontColor=#999999;" parent="1" vertex="1">
          <mxGeometry x="780.35" y="415" width="30" height="30" as="geometry" />
        </mxCell>
        <mxCell id="N3Vv8xPvsJctR40ruS8Q-13" value="" style="strokeColor=#dddddd;shadow=1;strokeWidth=1;rounded=1;absoluteArcSize=1;arcSize=2;" parent="1" vertex="1">
          <mxGeometry x="470" y="680" width="120" height="60" as="geometry" />
        </mxCell>
        <mxCell id="N3Vv8xPvsJctR40ruS8Q-14" value="Datalab" style="editableCssRules=.*;html=1;fontColor=#999999;shape=image;verticalLabelPosition=middle;verticalAlign=middle;labelPosition=right;align=left;spacingLeft=20;part=1;points=[];imageAspect=0;image=data:image/svg+xml,PHN2ZyB4bWxucz0iaHR0cDovL3d3dy53My5vcmcvMjAwMC9zdmciIHhtbG5zOnY9Imh0dHBzOi8vdmVjdGEuaW8vbmFubyIgd2lkdGg9IjI3MS44OTgxMDE4MDY2NDA2IiBoZWlnaHQ9IjQyMy4wMDQwMjgzMjAzMTI1IiB2aWV3Qm94PSIwLjAwMDQ2MTI3MDM2MzMwMjkwMTQgMCAyNzEuODk4MTAxODA2NjQwNiA0MjMuMDA0MDI4MzIwMzEyNSI+JiN4YTsJPHN0eWxlIHR5cGU9InRleHQvY3NzIj4mI3hhOwkuc3Qwe2ZpbGw6IzQyODVmNDtmaWxsLXJ1bGU6ZXZlbm9kZH0mI3hhOwk8L3N0eWxlPiYjeGE7CTxwYXRoIGNsYXNzPSJzdDAiIGQ9Ik0xOTcuMzc4IDE0NC43NzRhMy4xMSAzLjExIDAgMCAxIDMuMTA1IDIuOTM0bC4wMDUuMTc3djE3LjEwN2EzLjExIDMuMTEgMCAwIDEtMi45MzQgMy4xMDVsLS4xNzcuMDA1aC0xMi40NDF2MzAuNjQ5YzAgMS4yMjcuMjk3IDIuNDM1Ljg2MiAzLjUyMmwuMTYxLjI5MyA4My44OTUgMTQ0LjI2MmExNS4yNiAxNS4yNiAwIDAgMSAuMTgyIDE0LjkzNmwtLjE4Mi4zMjQtMzAuNDMxIDUzLjI4NmExNS4yNiAxNS4yNiAwIDAgMS0xMi44NjEgNy42MjZsLS4zNTUuMDA0SDQ1LjY5MmExNS4yNiAxNS4yNiAwIDAgMS0xMy4wMzUtNy4zMjRsLS4xODEtLjMwNS0zMC40MzEtNTMuMjg2YTE1LjI2IDE1LjI2IDAgMCAxLS4xODItMTQuOTM2bC4xODItLjMyNCA4My42NzQtMTQ0LjI2MmMuNjIxLTEuMDc3IDEuMTYtMi4yODkgMS4yMzQtMy41MjhsLjAwOS0uMjg3di0zMC42NDlINzQuNTJjLTEuNjU4IDAtMy4wMTQtMS4yOTktMy4xMDUtMi45MzRsLS4wMDUtLjE3NnYtMTcuMTA3YTMuMTEgMy4xMSAwIDAgMSAyLjkzNC0zLjEwNWwuMTc2LS4wMDV6bS0zNS43NjkgMjMuMzI3aC01MS4zMnYzNS40MDVjMCAyLjUzMS0uNjI4IDUuMDE4LTEuODI2IDcuMjQybC0uMjE3LjM5TDI4LjAzMyAzNTAuOWE3LjYzIDcuNjMgMCAwIDAtLjEzOSA3LjM3NWwuMTQxLjI1NSAyMC43NDEgMzUuOTIxYTcuNjMgNy42MyAwIDAgMCA2LjMyNyAzLjgxbC4yODEuMDA1aDI1LjU3MmwtMjIuNjA1LTM5LjE1M2MtMS4zMTQtMi4yNzYtMS4zNjEtNS4wNjItLjE0MS03LjM3NWwuMTQxLS4yNTUgMTkuNjc5LTM0LjA4NmgxNDYuNjA2TDIxMi45ODggMjk3LjFoLTU0LjI1OWwtOC44MjEtMTUuMjc4aDU0LjMxMmwtMTYuMzMzLTI4LjQ2aC01NC43OGwtOC44MjEtMTUuMjc4aDU0LjgzM2wtMTUuNDY1LTI2Ljk0NmExNS4yNyAxNS4yNyAwIDAgMS0yLjAzOS03LjE4NWwtLjAwNy0uNDQ2em03Mi44NDQgMTY2LjQwMWwtNTQuMTgxLjAwMSA4LjgyMSAxNS41NTJoNTQuMjg1ek0xMDQuOTIxIDc5Ljc5NWM4LjQyNyAwIDE1LjI1OSA2LjgzMyAxNS4yNTkgMTUuMjYxcy02LjgzMiAxNS4yNTktMTUuMjU5IDE1LjI1OS0xNS4yNTktNi44MzItMTUuMjU5LTE1LjI1OSA2LjgzMi0xNS4yNjEgMTUuMjU5LTE1LjI2MXptNTcuNTc1LTMyLjc0M2MxMi42NDIgMCAyMi44OSAxMC4yNDcgMjIuODkgMjIuODg5cy0xMC4yNDkgMjIuODg5LTIyLjg5IDIyLjg4OS0yMi44ODktMTAuMjQ5LTIyLjg4OS0yMi44ODkgMTAuMjQ3LTIyLjg4OSAyMi44ODktMjIuODg5ek0xMjcuODEgMGM4LjQyNyAwIDE1LjI2MSA2LjgzMyAxNS4yNjEgMTUuMjYxUzEzNi4yMzcgMzAuNTIgMTI3LjgxIDMwLjUycy0xNS4yNTktNi44MzItMTUuMjU5LTE1LjI1OVMxMTkuMzg0IDAgMTI3LjgxIDB6Ii8+JiN4YTs8L3N2Zz4=;" parent="N3Vv8xPvsJctR40ruS8Q-13" vertex="1">
          <mxGeometry width="20" height="30" relative="1" as="geometry">
            <mxPoint x="20" y="15" as="offset" />
          </mxGeometry>
        </mxCell>
        <mxCell id="N3Vv8xPvsJctR40ruS8Q-15" value="" style="strokeColor=#dddddd;shadow=1;strokeWidth=1;rounded=1;absoluteArcSize=1;arcSize=2;" parent="1" vertex="1">
          <mxGeometry x="620" y="680" width="140" height="60" as="geometry" />
        </mxCell>
        <mxCell id="N3Vv8xPvsJctR40ruS8Q-16" value="Dataprep" style="editableCssRules=.*;html=1;fontColor=#999999;shape=image;verticalLabelPosition=middle;verticalAlign=middle;labelPosition=right;align=left;spacingLeft=20;part=1;points=[];imageAspect=0;image=data:image/svg+xml,PHN2ZyB4bWxucz0iaHR0cDovL3d3dy53My5vcmcvMjAwMC9zdmciIHhtbG5zOnY9Imh0dHBzOi8vdmVjdGEuaW8vbmFubyIgd2lkdGg9IjE4LjI3OTk5ODc3OTI5Njg3NSIgaGVpZ2h0PSIyMCIgdmlld0JveD0iMS4yNDYyOTA4MDM4OTEyNzAxZS04IDAgMTguMjc5OTk4Nzc5Mjk2ODc1IDIwIj4mI3hhOwk8c3R5bGUgdHlwZT0idGV4dC9jc3MiPiYjeGE7CS5zdDB7ZmlsbDojNjY5ZGY2O2ZpbGwtcnVsZTpldmVub2RkfSYjeGE7CS5zdDF7ZmlsbDojNDI4NWY0O30mI3hhOwkuc3Qye2ZpbGwtcnVsZTpldmVub2RkfSYjeGE7CTwvc3R5bGU+JiN4YTsJPHBhdGggY2xhc3M9InN0MCIgZD0iTTcuNjMgOWEuOTEuOTEgMCAxIDEtLjY0My4yNjdBLjkxLjkxIDAgMCAxIDcuNjMgOXptMC0uOGExLjcxIDEuNzEgMCAxIDAgMS43IDEuNzEgMS43IDEuNyAwIDAgMC0xLjctMS43MXpNMS43MiA5YS45MS45MSAwIDEgMS0uNjQzLjI2N0EuOTEuOTEgMCAwIDEgMS43MiA5em0wLS44YTEuNzEgMS43MSAwIDEgMCAxLjcgMS43MSAxLjcgMS43IDAgMCAwLTEuNy0xLjcxem0zLjA0IDYuMTFhLjkxLjkxIDAgMSAxIDAgMS44Mi45MS45MSAwIDEgMSAwLTEuODJ6bTAtLjc5YTEuNzEgMS43MSAwIDEgMCAxLjIuNSAxLjcgMS43IDAgMCAwLTEuMi0uNXptMC05LjczYS45MS45MSAwIDAgMS0uMDQgMS44MTkuOTEuOTEgMCAwIDEtLjktLjkwOS45Mi45MiAwIDAgMSAuOTQtLjkxem0wLS44YTEuNzEgMS43MSAwIDEgMCAxLjIuNUExLjcgMS43IDAgMCAwIDQuNzYgM3oiLz4mI3hhOwk8ZyBjbGFzcz0ic3QxIj4mI3hhOwkJPHBhdGggZD0iTTcuODEgMGgxLjY4djIwSDcuODF6Ii8+JiN4YTsJCTxwYXRoIGNsYXNzPSJzdDIiIGQ9Ik0xMy40IDIuODdIOC44OWEuMzcuMzcgMCAwIDAtLjMuNHYyLjgyYS4zNi4zNiAwIDAgMCAuMy4zOWg0LjUxYS4zNi4zNiAwIDAgMCAuMzEtLjM5VjMuMjhhLjM3LjM3IDAgMCAwLS4zMS0uNDF6bTQuMzIgNS4yOUg5LjRjLS4zMSAwLS41Ni4xOC0uNTYuMzl2Mi44MmMwIC4yMi4yNS40LjU2LjRoOC4zMmMuMzEgMCAuNTYtLjE5LjU2LS40VjguNTVjMC0uMjItLjI1LS4zOS0uNTYtLjM5em0tNS45MSA1LjI4SDguMjhjLS4xMyAwLS4yMy4xOC0uMjMuMzl2Mi44MmMwIC4yMi4xLjM5LjIzLjM5aDMuNTNjLjEzIDAgLjI0LS4xOC4yNC0uMzl2LTIuODJjLS4wMS0uMjItLjExLS4zOS0uMjQtLjM5eiIvPiYjeGE7CTwvZz4mI3hhOzwvc3ZnPg==;" parent="N3Vv8xPvsJctR40ruS8Q-15" vertex="1">
          <mxGeometry width="30" height="28" relative="1" as="geometry">
            <mxPoint x="15" y="16" as="offset" />
          </mxGeometry>
        </mxCell>
        <mxCell id="hNwgVkph9_-9w0Fj4r1G-7" value="Adobe Experience Cloud " style="verticalLabelPosition=middle;verticalAlign=top;html=1;shape=mxgraph.basic.rect;fillColor2=none;strokeWidth=1;size=0;indent=5;fillColor=#f5f5f5;fontColor=#333333;strokeColor=#808080;dashed=1;labelPosition=center;align=left;" vertex="1" parent="1">
          <mxGeometry x="360" y="160" width="680" height="180" as="geometry" />
        </mxCell>
        <mxCell id="hNwgVkph9_-9w0Fj4r1G-8" value="Adobe Customer Journey" style="shape=image;verticalLabelPosition=bottom;labelBackgroundColor=none;verticalAlign=top;aspect=fixed;imageAspect=0;image=data:image/png,iVBORw0KGgoAAAANSUhEUgAAANgAAADYCAMAAAC+/t3fAAAAkFBMVEX6DwD////5HRD9s6/5Fwr9qaT7W1L6Jhn/7ez8e3P6EQP/+vr6AQD9nZf/+Pj+5eT+8fH+4N76Kx7+2Nb8iYL+y8j7OzD7b2f7TUP7kYv7NSn9v7v8aF/7V038hX77U0n7RTn/0M78xMLyRjv8uLXzf3n3LiP8YVn6qqb3oZ3x7u7+2dj7aWD8eXH9n5r7Oy8SVyWCAAAJtUlEQVR4nO2daXuqPBCGAVk0RBaXoqIVPT3avrb1//+7V7pKWCbL5AhcPl9bNDeBcWYymRhms4IgCqfzdNAipftdHEWB3zxwo+Fvvh87I/fB86yWyfNW22Q5j5rY6sGC/ejPxLKJ0U4R2zuvnaEwWLxceDa99egBEWuV7IXApqOzdetR84lM3KfKJ7IKLHxc2bcesIAmbtWsVYA5WZewch3+hjBYnExuPU5xkcUAAksXtx6knA7LoBHsfXXrEcrKSsJ6MH/ZEVtYqWNcBxbMusxlGO60Gsyfdc0astqcKsHGXee6PI1hBdizd+thqYu8RSWw3eHWo8KQvWTBhttbjwlHXsqAPbY1PBFVFhbA9t029Fcio2uwaNuXCbs8jPMrsJf+cBnEjX7Ahg+3Hg2m7MEPWJ8m7KJt9AX2359bDwVXVvoF9tx9X6ogcgw+wHz31iPBlhd/gMU9cBKLssc5mN8Dr57VIriABb17Ei/m43QBG3YwKwXJdi5gaf+eRIMkgdH9hECVssgI1v1yOz5lhUbUM7fjU9bciHqREmBlO0bcmxDzWvbMmPcSjIyMPlr73N4bg36CvRp9i1m+5BrOHaxTuoN1TXcwKVFKSa0uf9X3zXrBqJWt30Z1SjY6F/K1gq2W9TVcuVJXX8SkE+yQNmLlqfWjNjJ9YDTPgUGKz7reM41gWQSDmY+6nhd9YPaMg8ucHjRNmTYwujrBWBcdtXy7zhlbc3GZA0/PlOkCo94TH1iQdQxsAVSP/2ip54nRBEZ/C0kgxSstU6YLbFWuZa1TouVHWhMYSbi5zHSiY8r0gNFJXTV8hfxth8C2vKYj19jSQKYFjFocbuKvhg+dAXtoDldYjTQ8NFrA7JEQlznXYD50gNHJXAxMRz2GlhlzRUxHLgfffGgAo5YjyGUO8R1GHWCZmOnIhR9vagCzH4W5zCm6w4gPRldTGKQk9BV+fDBylODCjzfRwahX2snFo2jRerAFT3KqrCXyTld0ML7kVFknZIcRG4yeZUxHLuR4ExtMJMIsCjneRAajE87kVFn+ptVg2wBGqBFuvIkLJhhhFhWiOozIYFkMA9RqhGk+cMHImwKXucd0GFHBKLzU16hja8GEI8yiHESHEROMWu9KXKgOIyqYRIRZFGLdNSYYkYgwi5riLUkjgtGVYHKqQgnSWHDB1mqmI9cAzWHEA6OecHKqrAhtgQIRTDLCLAqt7wYemGyEWVSMFW+igfFEmOMRvM75huQw4oHBEebUo0vQvmDFm1hgHMkpf3aZVvAnPHBbBrYFhzw8X37D4dwcUryJBcZR/jDI354NGGGHOA4jEhjNwMqpYJP/o7UDbwDO+iYSGEeEubM+/xE0H3OUeBMHjCM55X8F/gcweeCvWwTmgl5H+FXZTOCYDSXeRAHjqZJ1vn944aAtxHAYccDg5FT002vIhvMiGPEmChiByx/mP99C1qDF3yE4jBhgdAVWTgVXLqAH19QmLQE7giY8vtr2T2bgvyPEmwhg1HoBp2B87bOfQR8/UncYMcAW4ECHhTab5Bm8Eer1tAhgHMkpZufuBvzVmyovUKiD0TOYnIqY5JMNp7NGaoNCAUtAW3Bie9eMQIufqjqMymDUA98Yf8leNIEdRtUFCnWwDRxhZqWrxuAsvyumq5TBOCLMp3J+hsNhVIw3VcFotoOGGK3Ll9nwGrxiw0dlMDhw3FU9VK+gxZ+rLVAogtEJmJ0JZlUXwimCQM1hVAXjjzAZzUCLrxZvKoLBEab/XP2uwJtfhkoVLWpgHMmpaFNz7TP4cio5jIozxhFh1v0ewQ7jTsVhVALjKH8IHusutsHo1H+7GdgavOtxfXOoN9B8qMSbSmBw+YPv1F89Ad/PoYLDqAJGF6AvO2w6yAF2GBU6P6qAcUSY+6YPz0CLf5J3GBXA6JkjOdX0AQTOMMo7jCpgCfj2n5p7UsK2Rz7eVACD9+b478An7KBPiF7/PRjdgK9ICJ0BAzuML7K3XR6MwBFmCr0hZ9CsxrILFNJg9EE4OVUhOMM4kzQf8mDwGuYUbqwMJ0zmkgsUsmA85Q+l5FRZHA6jZLwpDeaC9zrOOD7nDbT4kqeuyIIReA0zNTju9QQsVArlFigkwTiSU5dIjNgllUwB7DAupcyHLBjHFu5gPy5ruWCGCTuMcvGmHBg9cO3N8csKQqbHFuEopPiHYLCXVz8BTPLpFbRCTzLxphyYrVBg7zMbaC34h16mokUKjC5kt/XlSpnythk4++8S914ODF4eb1DAuMZwZy6ZeFMGTHVvDvuNDnSb/Nk/AkvU6rXZc33g+Gcv3iFOBky8+wMjpqQILkKKxB1GCTC6VdnWlysu2m86Ap8AR3h9U2bGuJuE1YrZ8zzZQReEwgsU4mAYe3PmRYtPx2CKQNhhlACDIw1Q/qY4TrgsUHh9UxzMkur+wGhQbJkAV60Hog6jMBh1+dvV1SvKih+6Bh3GgaD5EAbjiDB5NC5OmQWmCELBBQpRMPqwQwELiyleCmcYx2LmQxgMLoPiE7NNHd7LJBhvioLxtiYFtWOCrBfQYXzUCUaPGKbjQ0wkDTuMqVC6ShBMJcIsjbMwA7DDOBRaoBAD40lO8Yrpo8vxuy90KKYgmGLAUhDTog9u8bcX6Y8vCHZU3XT/Kz9jPhv08VORo+0E3zG5blqVXM/szj571nzXAiGzKGruz84QRfG4fPuJOwgbrngUcqqEXSrbQ5FV+a221XCFXs/j42QPDIl/uNgw7+e2dE13sK7pDtY13cG6pjtY13QH65rc/h4Q2tsjXXt7CG9vj03u7UHXvT2avLeHyQfohwO0QVZo+IiNQ9ujLDLY1g29EEkCwxyKZI47ItsxDTPQcIDPrWWdLmC+wvaztmoRXMDMWK6yvcXKt2cbeg6Tuq28+APM7FvkQo7BJ9h/PXM+rHw9OwcTW91tv7bRNxhbzNpt2R/Lrh9gvZoy8tmK4xMs2vaHzPssP/gEM/e9CTe/eyJ+gan23mmPvrc3fYMNt/A1XZD3Xbr0DWbuepEi+G2T9QMmuxmyVSK/FVm/YCpNJtqiq6rDK7DuJwk2VxubrsDMYNZto+9e199eg5k+2pEOt9CxsC2hAGaa7yI1ga2SlRSLbxkw8wlqVdFSHZZMeTkLZsZJB80+WZQKKUtgpulkXbOOh7/lGvAKMDN8XHUJbeJWbSCpAjPN6ejcEftIJu5T5V6EarDLq7ZceMjHx+KLWKukbrtPHVjeBGH0Z2KV+zm0RMT2zmunvj66HixvghA7I/fB86yWyfMOi2Q5j5r2wzSBfcxbEIXTeTpokdL9Lo6iANjl8z/XCJ5sa3+mvAAAAABJRU5ErkJggg==;fontColor=#666666;fontStyle=1" vertex="1" parent="1">
          <mxGeometry x="770" y="200" width="80" height="80" as="geometry" />
        </mxCell>
        <mxCell id="hNwgVkph9_-9w0Fj4r1G-9" value="Integration layer&amp;nbsp; " style="verticalLabelPosition=middle;verticalAlign=top;html=1;shape=mxgraph.basic.rect;fillColor2=none;strokeWidth=1;size=20;indent=5;fillColor=#f5f5f5;fontColor=#808080;strokeColor=#808080;dashed=1;labelPosition=center;align=left;" vertex="1" parent="1">
          <mxGeometry x="396.5" y="200" width="267" height="110" as="geometry" />
        </mxCell>
        <mxCell id="hNwgVkph9_-9w0Fj4r1G-10" value="BI API" style="aspect=fixed;sketch=0;html=1;dashed=0;whitespace=wrap;verticalLabelPosition=bottom;verticalAlign=top;fillColor=#2875E2;strokeColor=#ffffff;points=[[0.005,0.63,0],[0.1,0.2,0],[0.9,0.2,0],[0.5,0,0],[0.995,0.63,0],[0.72,0.99,0],[0.5,1,0],[0.28,0.99,0]];shape=mxgraph.kubernetes.icon2;prIcon=api" vertex="1" parent="1">
          <mxGeometry x="440" y="231" width="50" height="48" as="geometry" />
        </mxCell>
        <mxCell id="hNwgVkph9_-9w0Fj4r1G-11" value="" style="sketch=0;outlineConnect=0;fontColor=#232F3E;gradientColor=none;fillColor=#01A88D;strokeColor=none;dashed=0;verticalLabelPosition=bottom;verticalAlign=top;align=center;html=1;fontSize=12;fontStyle=0;aspect=fixed;shape=mxgraph.aws4.transfer_for_ftp_resource;" vertex="1" parent="1">
          <mxGeometry x="560" y="230.5" width="38" height="39" as="geometry" />
        </mxCell>
      </root>
    </mxGraphModel>
  </diagram>
</mxfile>
